#!OML:ASF X:\für Bonn\!DataBase\2005_08_10_Bjorn_Final\c3d\bjorn.ASF
:FULLY-SPECIFIED
:DEGREES
94
root 3.12207 9.82241 1.13313 485.42 77.4806 -588.102
lowerback 43.4524 -3.96047 3.78191
upperback 22.2703 1.18925 1.05247
thorax 4.60355 2.71753 -1.00414
lowerneck -5.43728 -10.0359 3.40508
upperneck 3.47875 -13.7666 2.49413
head 1.94894 -6.76284 -0.219947
rclavicle -2.8625e-014 -7.95139e-015
rhumerus 20.439 -17.6505 -74.782
rradius 18.2997
rwrist 23.1774
rhand -39.5606 25.1803
rfingers 7.12502
rthumb -12.5442 -4.42313
lclavicle -2.8625e-014 -7.95139e-015
lhumerus 16.737 -27.8442 64.7121
lradius 55.4749
lwrist -10.2124
lhand -30.4441 -13.5259
lfingers 7.12502
lthumb -3.74637 16.4209
rfemur -57.7628 -58.754 -26.5427
rtibia 142.343
rfoot -34.9708 60.1986
rtoes -19.8078
lfemur -82.4279 14.5032 -31.3524
ltibia 134.66
lfoot -27.0313 -11.7805
ltoes -17.1189
95
root 3.14306 9.70483 1.12383 485.047 77.4643 -588.184
lowerback 43.6129 -4.05703 3.85634
upperback 22.3076 1.13644 1.08985
thorax 4.60549 2.70695 -0.983289
lowerneck -5.61928 -10.0892 3.44119
upperneck 3.76462 -13.852 2.41771
head 2.06639 -6.79572 -0.272684
rclavicle 3.97569e-014 7.95139e-014
rhumerus 20.136 -17.9002 -74.8497
rradius 18.4496
rwrist 23.6708
rhand -40.3703 25.833
rfingers 7.12502
rthumb -13.3247 -3.72103
lclavicle 3.97569e-014 7.95139e-014
lhumerus 16.2022 -28.175 64.8383
lradius 55.2011
lwrist -10.265
lhand -30.3075 -13.4418
lfingers 7.12502
lthumb -3.61437 16.5073
rfemur -55.5235 -61.1243 -30.2284
rtibia 143.19
rfoot -36.6381 61.743
rtoes -20.0057
lfemur -82.8548 15.082 -31.3928
ltibia 135.611
lfoot -26.9884 -12.2078
ltoes -16.7403
96
root 3.16412 9.59055 1.11395 484.644 77.4348 -588.273
lowerback 43.8124 -4.15789 3.95394
upperback 22.3241 1.08863 1.11568
thorax 4.5747 2.70151 -0.989095
lowerneck -5.83777 -10.1467 3.46618
upperneck 4.09474 -13.9465 2.36817
head 2.2085 -6.8305 -0.320574
rclavicle -1.11319e-013 -6.20208e-014
rhumerus 19.7249 -18.0292 -74.8129
rradius 18.6559
rwrist 23.9317
rhand -41.1029 26.5321
rfingers 7.12502
rthumb -14.0308 -2.97437
lclavicle -1.11319e-013 -6.20208e-014
lhumerus 15.6481 -28.515 65.0469
lradius 54.8754
lwrist -10.4607
lhand -30.2183 -13.4921
lfingers 7.12502
lthumb -3.5283 16.4584
rfemur -52.6137 -63.4257 -34.6196
rtibia 144.003
rfoot -38.6828 63.2621
rtoes -20.1059
lfemur -83.2328 15.6775 -31.4544
ltibia 136.532
lfoot -27.0106 -12.5874
ltoes -16.5768
97
root 3.18533 9.4801 1.10481 484.334 77.4331 -588.273
lowerback 44.0187 -4.25975 4.09637
upperback 22.3207 1.05248 1.12474
thorax 4.52117 2.70584 -1.0398
lowerneck -6.07223 -10.2133 3.57939
upperneck 4.43887 -14.0608 2.3077
head 2.35152 -6.8733 -0.387425
rclavicle 4.45278e-014 -1.11319e-014
rhumerus 19.2436 -18.1861 -74.8107
rradius 18.8944
rwrist 24.2029
rhand -41.7974 27.2315
rfingers 7.12502
rthumb -14.7 -2.22735
lclavicle 4.45278e-014 -1.11319e-014
lhumerus 15.1149 -28.9908 65.1485
lradius 54.58
lwrist -10.5096
lhand -30.1564 -13.4422
lfingers 7.12502
lthumb -3.46851 16.5093
rfemur -49.2612 -65.4732 -39.4021
rtibia 144.772
rfoot -40.6266 64.7344
rtoes -20.073
lfemur -83.5945 16.3499 -31.5001
ltibia 137.423
lfoot -27.0493 -12.874
ltoes -16.5771
98
root 3.20574 9.37337 1.09608 483.996 77.435 -588.291
lowerback 44.2431 -4.359 4.21145
upperback 22.3149 1.01223 1.14515
thorax 4.46005 2.70408 -1.06345
lowerneck -6.31277 -10.2701 3.58893
upperneck 4.77909 -14.158 2.31057
head 2.50809 -6.90691 -0.420435
rclavicle -4.13472e-014 -6.36111e-015
rhumerus 18.7748 -18.3012 -74.7913
rradius 19.1398
rwrist 24.4475
rhand -42.4131 27.8916
rfingers 7.12502
rthumb -15.2931 -1.52297
lclavicle -4.13472e-014 -6.36111e-015
lhumerus 14.5582 -29.4082 65.3752
lradius 54.1932
lwrist -10.5215
lhand -30.1711 -13.5983
lfingers 7.12502
lthumb -3.48264 16.353
rfemur -45.3926 -67.2771 -44.6886
rtibia 145.515
rfoot -42.7639 66.0538
rtoes -20.1071
lfemur -83.9249 17.0489 -31.5354
ltibia 138.28
lfoot -27.0993 -13.1932
ltoes -16.5836
99
root 3.22662 9.27034 1.08749 483.69 77.4525 -588.294
lowerback 44.4418 -4.46287 4.36265
upperback 22.3012 0.973931 1.14164
thorax 4.3977 2.70753 -1.13129
lowerneck -6.56691 -10.3246 3.66363
upperneck 5.15705 -14.2579 2.28404
head 2.67372 -6.93965 -0.474882
rclavicle -6.99722e-014 -1.27222e-014
rhumerus 18.2955 -18.4063 -74.7792
rradius 19.3858
rwrist 24.6456
rhand -43.2204 28.8478
rfingers 7.12502
rthumb -16.0706 -0.505762
lclavicle -6.99722e-014 -1.27222e-014
lhumerus 14.0406 -29.8672 65.5675
lradius 53.7891
lwrist -10.5712
lhand -30.2613 -13.6835
lfingers 7.12502
lthumb -3.56979 16.2664
rfemur -40.8892 -68.8617 -50.5941
rtibia 146.228
rfoot -45.3973 67.2028
rtoes -20.2003
lfemur -84.256 17.7957 -31.5682
ltibia 139.114
lfoot -27.1709 -13.435
ltoes -16.8471
100
root 3.24639 9.17169 1.0785 483.427 77.4694 -588.246
lowerback 44.6834 -4.56978 4.51248
upperback 22.2545 0.931761 1.14913
thorax 4.28684 2.70456 -1.18727
lowerneck -6.76449 -10.3898 3.69456
upperneck 5.51903 -14.3657 2.27226
head 2.8291 -6.97711 -0.514943
rclavicle 5.08889e-014 7.95139e-014
rhumerus 17.765 -18.5013 -74.7582
rradius 19.6739
rwrist 24.882
rhand -44.062 29.8135
rfingers 7.12502
rthumb -16.8809 0.52719
lclavicle 5.08889e-014 7.95139e-014
lhumerus 13.4833 -30.2887 65.8363
lradius 53.3629
lwrist -10.7887
lhand -30.2744 -13.7298
lfingers 7.12502
lthumb -3.58247 16.2198
rfemur -35.9654 -70.1387 -56.8979
rtibia 146.906
rfoot -47.9209 68.3245
rtoes -20.1924
lfemur -84.5738 18.5185 -31.5941
ltibia 139.91
lfoot -27.2431 -13.6694
ltoes -17.0924
101
root 3.26699 9.07574 1.07025 483.079 77.454 -588.303
lowerback 44.8537 -4.6574 4.58822
upperback 22.2493 0.884487 1.16291
thorax 4.23982 2.69429 -1.19518
lowerneck -6.99406 -10.4341 3.75374
upperneck 5.85854 -14.4471 2.21788
head 2.9782 -7.00283 -0.572772
rclavicle 4.45278e-014 4.13472e-014
rhumerus 17.3161 -18.5633 -74.7319
rradius 19.9452
rwrist 25.0935
rhand -44.8166 30.8422
rfingers 7.12502
rthumb -17.6072 1.61941
lclavicle 4.45278e-014 4.13472e-014
lhumerus 12.9501 -30.6058 66.1515
lradius 52.8885
lwrist -11.2724
lhand -30.2778 -13.7194
lfingers 7.12502
lthumb -3.58578 16.2302
rfemur -30.7417 -71.1415 -63.5465
rtibia 147.554
rfoot -50.6189 69.2961
rtoes -20.2543
lfemur -84.8638 19.2517 -31.6718
ltibia 140.673
lfoot -27.3485 -13.8244
ltoes -17.5284
102
root 3.28696 8.98526 1.06163 482.619 77.4108 -588.507
lowerback 44.9682 -4.72527 4.628
upperback 22.2604 0.84196 1.17215
thorax 4.22469 2.68372 -1.19047
lowerneck -7.18412 -10.4842 3.75666
upperneck 6.13817 -14.5323 2.22689
head 3.10985 -7.03158 -0.598521
rclavicle 1.90833e-014 -1.59028e-014
rhumerus 16.8874 -18.5954 -74.6903
rradius 20.2357
rwrist 25.2658
rhand -45.485 31.7897
rfingers 7.12502
rthumb -18.2503 2.62585
lclavicle 1.90833e-014 -1.59028e-014
lhumerus 12.4669 -30.9237 66.4555
lradius 52.422
lwrist -11.6922
lhand -30.2118 -13.74
lfingers 7.12502
lthumb -3.52196 16.2107
rfemur -25.5956 -71.8493 -70.1609
rtibia 148.171
rfoot -53.2723 70.2048
rtoes -20.2603
lfemur -85.15 19.9128 -31.8042
ltibia 141.39
lfoot -27.4287 -13.9829
ltoes -17.7785
103
root 3.30627 8.89737 1.05244 482.093 77.3797 -588.774
lowerback 45.0629 -4.7877 4.66587
upperback 22.294 0.806308 1.16711
thorax 4.24092 2.6801 -1.20084
lowerneck -7.37924 -10.5251 3.78198
upperneck 6.37452 -14.6085 2.25307
head 3.22799 -7.05615 -0.620792
rclavicle 5.08889e-014 3.81667e-014
rhumerus 16.519 -18.731 -74.7098
rradius 20.5019
rwrist 25.5426
rhand -46.1148 32.6765
rfingers 7.12502
rthumb -18.8561 3.57045
lclavicle 5.08889e-014 3.81667e-014
lhumerus 12.0366 -31.1914 66.7701
lradius 51.9072
lwrist -12.1991
lhand -30.1043 -13.797
lfingers 7.12502
lthumb -3.4182 16.1554
rfemur -20.5268 -72.315 -76.679
rtibia 148.755
rfoot -56.1238 70.9956
rtoes -20.4805
lfemur -85.4389 20.5962 -31.9475
ltibia 142.097
lfoot -27.5691 -13.9859
ltoes -18.5376
104
root 3.32581 8.81417 1.04452 481.552 77.306 -589.067
lowerback 45.1055 -4.83197 4.63524
upperback 22.3524 0.765503 1.18325
thorax 4.29644 2.66703 -1.15144
lowerneck -7.50237 -10.5701 3.7136
upperneck 6.53543 -14.679 2.33181
head 3.31886 -7.08139 -0.605007
rclavicle -3.18055e-014 -2.70347e-014
rhumerus 16.1687 -18.7384 -74.6585
rradius 20.7847
rwrist 25.7568
rhand -46.67 33.5017
rfingers 7.12502
rthumb -19.39 4.44846
lclavicle -3.18055e-014 -2.70347e-014
lhumerus 11.6106 -31.4389 67.1109
lradius 51.3947
lwrist -12.6673
lhand -30.0397 -13.8679
lfingers 7.12502
lthumb -3.35577 16.0854
rfemur -15.6403 -72.5528 -83.0109
rtibia 149.296
rfoot -58.7341 71.7906
rtoes -20.3771
lfemur -85.6911 21.2127 -32.1136
ltibia 142.747
lfoot -27.6526 -14.085
ltoes -18.7998
105
root 3.34518 8.73518 1.03611 481.016 77.2569 -589.366
lowerback 45.139 -4.87031 4.63601
upperback 22.4096 0.741354 1.19981
thorax 4.35412 2.66478 -1.12259
lowerneck -7.58351 -10.6252 3.67461
upperneck 6.63885 -14.7604 2.39245
head 3.37809 -7.11485 -0.594342
rclavicle 1.59028e-014 7.95139e-015
rhumerus 15.8336 -18.8396 -74.6366
rradius 21.0513
rwrist 26.028
rhand -47.2277 34.2878
rfingers 7.12502
rthumb -19.9262 5.28934
lclavicle 1.59028e-014 7.95139e-015
lhumerus 11.1935 -31.6838 67.475
lradius 50.8646
lwrist -13.2063
lhand -29.9482 -13.9784
lfingers 7.12502
lthumb -3.26741 15.9763
rfemur -11.6883 -72.6098 -88.3603
rtibia 149.812
rfoot -61.143 72.5403
rtoes -20.3086
lfemur -85.9294 21.8688 -32.2848
ltibia 143.377
lfoot -27.815 -14.0312
ltoes -19.4932
